<mxfile host="app.diagrams.net" agent="Mozilla/5.0 (Windows NT 10.0; Win64; x64) AppleWebKit/537.36 (KHTML, like Gecko) Chrome/126.0.0.0 Safari/537.36 OPR/112.0.0.0" version="24.7.7">
  <diagram name="Page-1" id="dKGTmBD2gazZT_joY7rI">
    <mxGraphModel dx="1247" dy="636" grid="1" gridSize="10" guides="1" tooltips="1" connect="1" arrows="1" fold="1" page="1" pageScale="1" pageWidth="850" pageHeight="1100" math="0" shadow="0">
      <root>
        <mxCell id="0" />
        <mxCell id="1" parent="0" />
        <mxCell id="eRmZoqG796YqX_fro0qS-8" style="edgeStyle=orthogonalEdgeStyle;rounded=0;orthogonalLoop=1;jettySize=auto;html=1;exitX=0.855;exitY=0.855;exitDx=0;exitDy=0;exitPerimeter=0;" edge="1" parent="1" source="eRmZoqG796YqX_fro0qS-1" target="eRmZoqG796YqX_fro0qS-3">
          <mxGeometry relative="1" as="geometry" />
        </mxCell>
        <mxCell id="eRmZoqG796YqX_fro0qS-1" value="" style="verticalLabelPosition=bottom;verticalAlign=top;html=1;shape=mxgraph.flowchart.summing_function;rotation=-45;" vertex="1" parent="1">
          <mxGeometry x="280" y="125" width="70" height="70" as="geometry" />
        </mxCell>
        <mxCell id="eRmZoqG796YqX_fro0qS-9" style="edgeStyle=orthogonalEdgeStyle;rounded=0;orthogonalLoop=1;jettySize=auto;html=1;entryX=0;entryY=0.5;entryDx=0;entryDy=0;" edge="1" parent="1" source="eRmZoqG796YqX_fro0qS-3" target="eRmZoqG796YqX_fro0qS-4">
          <mxGeometry relative="1" as="geometry" />
        </mxCell>
        <mxCell id="eRmZoqG796YqX_fro0qS-3" value="&lt;font style=&quot;font-size: 30px;&quot;&gt;Gc&lt;/font&gt;" style="rounded=0;whiteSpace=wrap;html=1;fillColor=#e1d5e7;strokeColor=#B266FF;gradientColor=#6600CC;" vertex="1" parent="1">
          <mxGeometry x="440" y="120" width="160" height="77.5" as="geometry" />
        </mxCell>
        <mxCell id="eRmZoqG796YqX_fro0qS-10" style="edgeStyle=orthogonalEdgeStyle;rounded=0;orthogonalLoop=1;jettySize=auto;html=1;" edge="1" parent="1" source="eRmZoqG796YqX_fro0qS-4">
          <mxGeometry relative="1" as="geometry">
            <mxPoint x="1200" y="159" as="targetPoint" />
          </mxGeometry>
        </mxCell>
        <mxCell id="eRmZoqG796YqX_fro0qS-4" value="&lt;font style=&quot;font-size: 30px;&quot;&gt;Gp&lt;/font&gt;" style="rounded=0;whiteSpace=wrap;html=1;strokeColor=#B266FF;align=center;verticalAlign=middle;fontFamily=Helvetica;fontSize=12;fontColor=default;fillColor=#e1d5e7;gradientColor=#6600CC;" vertex="1" parent="1">
          <mxGeometry x="680" y="120" width="160" height="77.5" as="geometry" />
        </mxCell>
        <mxCell id="eRmZoqG796YqX_fro0qS-6" value="&lt;font style=&quot;font-size: 30px;&quot;&gt;H&lt;/font&gt;" style="rounded=0;whiteSpace=wrap;html=1;strokeColor=#B266FF;align=center;verticalAlign=middle;fontFamily=Helvetica;fontSize=12;fontColor=default;fillColor=#e1d5e7;gradientColor=#6600CC;" vertex="1" parent="1">
          <mxGeometry x="680" y="280" width="160" height="77.5" as="geometry" />
        </mxCell>
        <mxCell id="eRmZoqG796YqX_fro0qS-7" value="" style="endArrow=classic;html=1;rounded=0;entryX=0.145;entryY=0.145;entryDx=0;entryDy=0;entryPerimeter=0;" edge="1" parent="1" target="eRmZoqG796YqX_fro0qS-1">
          <mxGeometry width="50" height="50" relative="1" as="geometry">
            <mxPoint x="160" y="160" as="sourcePoint" />
            <mxPoint x="240" y="140" as="targetPoint" />
          </mxGeometry>
        </mxCell>
        <mxCell id="eRmZoqG796YqX_fro0qS-11" value="" style="endArrow=classic;html=1;rounded=0;exitX=1;exitY=0.5;exitDx=0;exitDy=0;" edge="1" parent="1">
          <mxGeometry width="50" height="50" relative="1" as="geometry">
            <mxPoint x="1080" y="158.75" as="sourcePoint" />
            <mxPoint x="1200" y="159" as="targetPoint" />
          </mxGeometry>
        </mxCell>
        <mxCell id="eRmZoqG796YqX_fro0qS-12" value="" style="endArrow=classic;html=1;rounded=0;entryX=1;entryY=0.5;entryDx=0;entryDy=0;" edge="1" parent="1" target="eRmZoqG796YqX_fro0qS-6">
          <mxGeometry width="50" height="50" relative="1" as="geometry">
            <mxPoint x="1120" y="160" as="sourcePoint" />
            <mxPoint x="1020" y="270" as="targetPoint" />
            <Array as="points">
              <mxPoint x="1120" y="319" />
            </Array>
          </mxGeometry>
        </mxCell>
        <mxCell id="eRmZoqG796YqX_fro0qS-13" value="" style="endArrow=classic;html=1;rounded=0;entryX=0.145;entryY=0.855;entryDx=0;entryDy=0;exitX=0;exitY=0.5;exitDx=0;exitDy=0;entryPerimeter=0;" edge="1" parent="1" source="eRmZoqG796YqX_fro0qS-6" target="eRmZoqG796YqX_fro0qS-1">
          <mxGeometry width="50" height="50" relative="1" as="geometry">
            <mxPoint x="1130" y="170" as="sourcePoint" />
            <mxPoint x="850" y="329" as="targetPoint" />
            <Array as="points">
              <mxPoint x="315" y="319" />
            </Array>
          </mxGeometry>
        </mxCell>
        <mxCell id="eRmZoqG796YqX_fro0qS-14" value="&lt;font style=&quot;font-size: 20px;&quot;&gt;R&lt;/font&gt;" style="text;html=1;align=center;verticalAlign=middle;whiteSpace=wrap;rounded=0;" vertex="1" parent="1">
          <mxGeometry x="200" y="125" width="60" height="30" as="geometry" />
        </mxCell>
        <mxCell id="eRmZoqG796YqX_fro0qS-15" value="&lt;span style=&quot;font-size: 20px;&quot;&gt;-b&lt;/span&gt;" style="text;html=1;align=center;verticalAlign=middle;whiteSpace=wrap;rounded=0;" vertex="1" parent="1">
          <mxGeometry x="310" y="230" width="60" height="30" as="geometry" />
        </mxCell>
        <mxCell id="eRmZoqG796YqX_fro0qS-16" value="&lt;span style=&quot;font-size: 20px;&quot;&gt;e&lt;/span&gt;" style="text;html=1;align=center;verticalAlign=middle;whiteSpace=wrap;rounded=0;" vertex="1" parent="1">
          <mxGeometry x="370" y="120" width="60" height="30" as="geometry" />
        </mxCell>
        <mxCell id="eRmZoqG796YqX_fro0qS-17" value="&lt;span style=&quot;font-size: 20px;&quot;&gt;m&lt;/span&gt;" style="text;html=1;align=center;verticalAlign=middle;whiteSpace=wrap;rounded=0;" vertex="1" parent="1">
          <mxGeometry x="610" y="120" width="60" height="30" as="geometry" />
        </mxCell>
        <mxCell id="eRmZoqG796YqX_fro0qS-18" value="&lt;span style=&quot;font-size: 20px;&quot;&gt;c&lt;/span&gt;" style="text;html=1;align=center;verticalAlign=middle;whiteSpace=wrap;rounded=0;" vertex="1" parent="1">
          <mxGeometry x="1120" y="120" width="60" height="30" as="geometry" />
        </mxCell>
      </root>
    </mxGraphModel>
  </diagram>
</mxfile>
